<svg width="25" height="17" viewBox="0 0 25 17" fill="none" xmlns="http://www.w3.org/2000/svg">
<path d="M7.29167 5.20929V4.16762C7.29167 3.89135 7.18192 3.6264 6.98657 3.43105C6.79122 3.2357 6.52627 3.12595 6.25 3.12595C5.97373 3.12595 5.70878 3.2357 5.51343 3.43105C5.31808 3.6264 5.20833 3.89135 5.20833 4.16762V5.20929H4.16667C3.8904 5.20929 3.62545 5.31903 3.4301 5.51438C3.23475 5.70973 3.125 5.97468 3.125 6.25095C3.125 6.52722 3.23475 6.79217 3.4301 6.98752C3.62545 7.18287 3.8904 7.29262 4.16667 7.29262H5.20833V8.33428C5.20833 8.61055 5.31808 8.8755 5.51343 9.07085C5.70878 9.2662 5.97373 9.37595 6.25 9.37595C6.52627 9.37595 6.79122 9.2662 6.98657 9.07085C7.18192 8.8755 7.29167 8.61055 7.29167 8.33428V7.29262H8.33333C8.6096 7.29262 8.87455 7.18287 9.0699 6.98752C9.26525 6.79217 9.375 6.52722 9.375 6.25095C9.375 5.97468 9.26525 5.70973 9.0699 5.51438C8.87455 5.31903 8.6096 5.20929 8.33333 5.20929H7.29167ZM9.70625 1.04262H15.2937C16.2354 0.417593 17.329 0.059626 18.458 0.00682505C19.587 -0.0459759 20.7092 0.208366 21.7052 0.742774C22.7011 1.27718 23.5334 2.07165 24.1136 3.04161C24.6939 4.01157 25.0002 5.12071 25 6.25095C25 9.70304 22.2021 16.6676 18.75 16.6676C16.6917 16.6676 14.8656 14.1905 13.7271 11.4593H11.2729C10.1354 14.1905 8.30833 16.6676 6.25 16.6676C2.79792 16.6676 7.23074e-08 9.70304 7.23074e-08 6.25095C-0.000171825 5.12071 0.306148 4.01157 0.886351 3.04161C1.46655 2.07165 2.29892 1.27718 3.29484 0.742774C4.29077 0.208366 5.41297 -0.0459759 6.54198 0.00682505C7.67099 0.059626 8.76455 0.417593 9.70625 1.04262ZM18.75 5.20929C19.0263 5.20929 19.2912 5.09954 19.4866 4.90419C19.6819 4.70884 19.7917 4.44389 19.7917 4.16762C19.7917 3.89135 19.6819 3.6264 19.4866 3.43105C19.2912 3.2357 19.0263 3.12595 18.75 3.12595C18.4737 3.12595 18.2088 3.2357 18.0134 3.43105C17.8181 3.6264 17.7083 3.89135 17.7083 4.16762C17.7083 4.44389 17.8181 4.70884 18.0134 4.90419C18.2088 5.09954 18.4737 5.20929 18.75 5.20929ZM16.6667 7.29262C16.9429 7.29262 17.2079 7.18287 17.4032 6.98752C17.5986 6.79217 17.7083 6.52722 17.7083 6.25095C17.7083 5.97468 17.5986 5.70973 17.4032 5.51438C17.2079 5.31903 16.9429 5.20929 16.6667 5.20929C16.3904 5.20929 16.1254 5.31903 15.9301 5.51438C15.7347 5.70973 15.625 5.97468 15.625 6.25095C15.625 6.52722 15.7347 6.79217 15.9301 6.98752C16.1254 7.18287 16.3904 7.29262 16.6667 7.29262ZM20.8333 7.29262C21.1096 7.29262 21.3746 7.18287 21.5699 6.98752C21.7653 6.79217 21.875 6.52722 21.875 6.25095C21.875 5.97468 21.7653 5.70973 21.5699 5.51438C21.3746 5.31903 21.1096 5.20929 20.8333 5.20929C20.5571 5.20929 20.2921 5.31903 20.0968 5.51438C19.9014 5.70973 19.7917 5.97468 19.7917 6.25095C19.7917 6.52722 19.9014 6.79217 20.0968 6.98752C20.2921 7.18287 20.5571 7.29262 20.8333 7.29262ZM18.75 9.37595C19.0263 9.37595 19.2912 9.2662 19.4866 9.07085C19.6819 8.8755 19.7917 8.61055 19.7917 8.33428C19.7917 8.05802 19.6819 7.79307 19.4866 7.59772C19.2912 7.40237 19.0263 7.29262 18.75 7.29262C18.4737 7.29262 18.2088 7.40237 18.0134 7.59772C17.8181 7.79307 17.7083 8.05802 17.7083 8.33428C17.7083 8.61055 17.8181 8.8755 18.0134 9.07085C18.2088 9.2662 18.4737 9.37595 18.75 9.37595Z" fill="white"/>
</svg>
