<svg width="21" height="21" viewBox="0 0 21 21" fill="none" xmlns="http://www.w3.org/2000/svg">
<path fill-rule="evenodd" clip-rule="evenodd" d="M11.6106 10V4.99994H12V3.5C12 3.10218 12.158 2.72064 12.4393 2.43934C12.7206 2.15804 13.1022 2 13.5 2C13.6723 2 13.8415 2.02963 14.0008 2.08607C13.8922 2.04508 13.7787 2.01391 13.6618 1.99335C13.3288 1.93478 12.9837 1.96484 12.6701 2.07972C12.3565 2.19461 12.0884 2.38916 11.8998 2.63877C11.7112 2.88839 11.6106 3.18185 11.6106 3.48206V4.99994H9.38942V3.48206C9.38942 3.07949 9.20859 2.69342 8.88672 2.40876C8.56484 2.1241 8.12828 1.96418 7.67308 1.96418C7.43919 1.96418 7.21022 2.0064 6.9992 2.08607C7.06685 2.06211 7.1364 2.04294 7.20737 2.02882C7.49834 1.97094 7.79994 2.00065 8.07403 2.11418C8.34811 2.22771 8.58238 2.41997 8.7472 2.66665C8.91203 2.91332 9 3.20333 9 3.5V4.99994H9.38942V10H1.11058C0.964734 10 0.820319 9.9746 0.685577 9.92524C0.550836 9.87588 0.428407 9.80353 0.32528 9.71233C0.117007 9.52814 0 9.27833 0 9.01784V5.98209C0 5.72161 0.117007 5.47179 0.32528 5.2876C0.533554 5.10341 0.816034 4.99994 1.11058 4.99994H4.12983C3.72481 4.25527 3.63243 3.4075 3.86921 2.60814C4.10598 1.80878 4.65647 1.10993 5.4223 0.636508C6.18812 0.163081 7.11935 -0.0540689 8.04957 0.0238683C8.97978 0.101805 9.84833 0.46975 10.5 1.06194C11.1505 0.466486 12.0198 0.0956752 12.9518 0.0161107C13.8837 -0.0634539 14.8171 0.153442 15.5845 0.62784C16.3518 1.10224 16.9027 1.80305 17.1383 2.6044C17.3738 3.40574 17.2786 4.25511 16.8697 4.99994H19.8894C20.184 4.99994 20.4664 5.10341 20.6747 5.2876C20.883 5.47179 21 5.72161 21 5.98209V9.01784C21 9.27833 20.883 9.52814 20.6747 9.71233C20.4664 9.89652 20.184 10 19.8894 10H11.6106ZM6.25774 4.34071C6.20129 4.25729 6.15311 4.168 6.11418 4.07403C6.00065 3.79994 5.97094 3.49834 6.02882 3.20737C6.0867 2.91639 6.22956 2.64912 6.43934 2.43934C6.5121 2.36658 6.59177 2.30188 6.67695 2.24597C6.59996 2.29449 6.52716 2.34887 6.45944 2.40876C6.13756 2.69342 5.95673 3.07949 5.95673 3.48206C5.95673 3.79073 6.06305 4.08971 6.25774 4.34071ZM14.3236 2.24633C14.4084 2.30201 14.4879 2.36655 14.5607 2.43934C14.842 2.72064 15 3.10218 15 3.5C15 3.80177 14.9091 4.09417 14.7424 4.34056C14.8096 4.25393 14.8667 4.16094 14.9126 4.06293C15.0425 3.78557 15.0765 3.48038 15.0103 3.18594C14.9441 2.8915 14.7806 2.62104 14.5406 2.40876C14.4731 2.34914 14.4005 2.29486 14.3236 2.24633ZM18 21C18.2652 21 18.5196 20.8913 18.7071 20.698C18.8946 20.5046 19 20.2423 19 19.9687V12H12V21H18ZM2.29289 20.698C2.10536 20.5046 2 20.2423 2 19.9687V12H9V21H3C2.73478 21 2.48043 20.8913 2.29289 20.698Z" fill="white"/>
</svg>
