<svg width="23" height="20" viewBox="0 0 23 20" fill="none" xmlns="http://www.w3.org/2000/svg">
<path d="M3.66309 3.07821H19.2881C19.4706 3.07812 19.6529 3.0897 19.834 3.11287C19.7726 2.6821 19.6246 2.26821 19.399 1.89617C19.1734 1.52413 18.8747 1.20163 18.521 0.948131C18.1674 0.694629 17.7661 0.515371 17.3413 0.421164C16.9165 0.326957 16.477 0.319752 16.0493 0.399985L3.19922 2.59383H3.18457C2.37797 2.74808 1.66068 3.20444 1.1792 3.86971C1.90459 3.35376 2.77292 3.07706 3.66309 3.07821Z" fill="white"/>
<path d="M19.2881 4.25H3.66309C2.83456 4.2509 2.04023 4.58044 1.45438 5.16629C0.868521 5.75215 0.538991 6.54648 0.538086 7.375V16.75C0.538991 17.5785 0.868521 18.3729 1.45438 18.9587C2.04023 19.5446 2.83456 19.8741 3.66309 19.875H19.2881C20.1166 19.8741 20.9109 19.5446 21.4968 18.9587C22.0827 18.3729 22.4122 17.5785 22.4131 16.75V7.375C22.4122 6.54648 22.0827 5.75215 21.4968 5.16629C20.9109 4.58044 20.1166 4.2509 19.2881 4.25ZM16.9688 13.625C16.6597 13.625 16.3576 13.5334 16.1007 13.3617C15.8437 13.19 15.6434 12.946 15.5252 12.6604C15.4069 12.3749 15.376 12.0608 15.4363 11.7577C15.4966 11.4546 15.6454 11.1762 15.8639 10.9576C16.0824 10.7391 16.3608 10.5903 16.6639 10.53C16.967 10.4697 17.2812 10.5007 17.5667 10.6189C17.8522 10.7372 18.0962 10.9375 18.2679 11.1944C18.4396 11.4514 18.5312 11.7535 18.5312 12.0625C18.5312 12.4769 18.3666 12.8743 18.0736 13.1674C17.7806 13.4604 17.3832 13.625 16.9688 13.625Z" fill="white"/>
<path d="M0.5625 10.6709V5.8125C0.5625 4.75439 1.14844 2.98047 3.18213 2.59619C4.9082 2.27246 6.61719 2.27246 6.61719 2.27246C6.61719 2.27246 7.74023 3.05371 6.8125 3.05371C5.88477 3.05371 5.90918 4.25 6.8125 4.25C7.71582 4.25 6.8125 5.39746 6.8125 5.39746L3.1748 9.52344L0.5625 10.6709Z" fill="white"/>
</svg>
