<svg width="21" height="21" viewBox="0 0 21 21" fill="none" xmlns="http://www.w3.org/2000/svg">
<path d="M18 1.49993H17.25V0.771025C17.25 0.367432 16.9397 0.0210253 16.5361 0.000869053C16.4347 -0.00401682 16.3333 0.0117366 16.2382 0.0471749C16.1431 0.0826132 16.0561 0.136999 15.9826 0.207035C15.9091 0.277072 15.8506 0.361302 15.8106 0.454621C15.7706 0.547941 15.75 0.648407 15.75 0.749932V1.49993H5.25V0.771025C5.25 0.367432 4.93969 0.0210253 4.53609 0.000869053C4.43469 -0.00401682 4.33334 0.0117366 4.2382 0.0471749C4.14307 0.0826132 4.05611 0.136999 3.98261 0.207035C3.90911 0.277072 3.8506 0.361302 3.81062 0.454621C3.77063 0.547941 3.75001 0.648407 3.75 0.749932V1.49993H3C2.20435 1.49993 1.44129 1.816 0.87868 2.37861C0.316071 2.94122 0 3.70428 0 4.49993V17.9999C0 18.7956 0.316071 19.5586 0.87868 20.1213C1.44129 20.6839 2.20435 20.9999 3 20.9999H18C18.7956 20.9999 19.5587 20.6839 20.1213 20.1213C20.6839 19.5586 21 18.7956 21 17.9999V4.49993C21 3.70428 20.6839 2.94122 20.1213 2.37861C19.5587 1.816 18.7956 1.49993 18 1.49993ZM9 12.9107C9 13.2659 8.8589 13.6065 8.60775 13.8577C8.3566 14.1088 8.01596 14.2499 7.66078 14.2499H4.33922C3.98404 14.2499 3.6434 14.1088 3.39225 13.8577C3.1411 13.6065 3 13.2659 3 12.9107V9.58915C3 9.23397 3.1411 8.89333 3.39225 8.64218C3.6434 8.39103 3.98404 8.24993 4.33922 8.24993H7.66078C8.01596 8.24993 8.3566 8.39103 8.60775 8.64218C8.8589 8.89333 9 9.23397 9 9.58915V12.9107ZM19.5 4.87493V5.81243C19.5 5.86216 19.4802 5.90985 19.4451 5.94501C19.4099 5.98018 19.3622 5.99993 19.3125 5.99993H1.6875C1.63777 5.99993 1.59008 5.98018 1.55492 5.94501C1.51975 5.90985 1.5 5.86216 1.5 5.81243V4.49993C1.50111 4.10245 1.65951 3.72157 1.94057 3.4405C2.22163 3.15944 2.60252 3.00104 3 2.99993H18C18.3975 3.00104 18.7784 3.15944 19.0594 3.4405C19.3405 3.72157 19.4989 4.10245 19.5 4.49993V4.87493Z" fill="white"/>
</svg>
