<svg width="25" height="24" viewBox="0 0 25 24" fill="none" xmlns="http://www.w3.org/2000/svg">
<path fill-rule="evenodd" clip-rule="evenodd" d="M16.0109 17.8907C15.0016 19.4938 13.8406 15.5001 12.5734 15.5001C11.2703 15.5001 10.0547 19.422 9.00001 17.7798C8.09376 16.3642 7.30938 14.8407 6.68907 14.0548C0.273447 14.0548 0.142197 23.3767 0.142197 23.3767H25.1313C25.1313 23.3767 25.5719 14.0142 18.3578 14.0142C17.7203 14.8329 16.9297 16.4376 16.0109 17.8923V17.8907Z" fill="white"/>
<path fill-rule="evenodd" clip-rule="evenodd" d="M12.4828 14.0469C10.1453 14.0469 7.83751 7.53281 7.83751 4.85469C7.83751 2.17188 10.1453 0 12.4844 0C14.8219 0 17.1281 2.17188 17.1281 4.85469C17.1281 7.53281 14.8219 14.0437 12.4844 14.0437L12.4828 14.0469Z" fill="white"/>
</svg>
