<svg width="22" height="21" viewBox="0 0 22 21" fill="none" xmlns="http://www.w3.org/2000/svg">
<path d="M5.63751 11.5232L9.46601 15.3538L7.93526 16.8857L9.46817 18.4186L7.93634 19.9504L5.25509 17.2692L2.19034 20.3339L0.658508 18.8021L3.72326 15.7362L1.04201 13.0561L2.57384 11.5242L4.10568 13.055L5.63643 11.5232H5.63751ZM1.25001 0.25L5.09151 0.25325L17.8933 13.0561L19.4262 11.5242L20.958 13.0561L18.2778 15.7373L21.3415 18.8021L19.8097 20.3339L16.7449 17.2692L14.0637 19.9504L12.5318 18.4186L14.0637 16.8857L1.25326 4.07525L1.25001 0.25ZM16.9118 0.25L20.75 0.25325L20.7522 4.06983L16.3614 8.4595L12.5308 4.62992L16.9118 0.25Z" fill="white"/>
</svg>
