<svg width="21" height="21" viewBox="0 0 21 21" fill="none" xmlns="http://www.w3.org/2000/svg">
<path d="M10.4896 0.083252C4.73958 0.083252 0.0833282 4.74992 0.0833282 10.4999C0.0833282 16.2499 4.73958 20.9166 10.4896 20.9166C16.25 20.9166 20.9167 16.2499 20.9167 10.4999C20.9167 4.74992 16.25 0.083252 10.4896 0.083252ZM6.85416 6.33325C7.71875 6.33325 8.41666 7.03117 8.41666 7.89575C8.41666 8.76034 7.71875 9.45825 6.85416 9.45825C5.98958 9.45825 5.29166 8.76034 5.29166 7.89575C5.29166 7.03117 5.98958 6.33325 6.85416 6.33325ZM10.5 16.7499C8.125 16.7499 6.10416 15.0208 5.29166 12.5833H15.7083C14.8958 15.0208 12.875 16.7499 10.5 16.7499ZM14.1458 9.45825C13.2812 9.45825 12.5833 8.76034 12.5833 7.89575C12.5833 7.03117 13.2812 6.33325 14.1458 6.33325C15.0104 6.33325 15.7083 7.03117 15.7083 7.89575C15.7083 8.76034 15.0104 9.45825 14.1458 9.45825Z" fill="white"/>
</svg>
