<svg width="21" height="17" viewBox="0 0 21 17" fill="none" xmlns="http://www.w3.org/2000/svg">
<path d="M1.12499 14.7501H19.875C20.1513 14.7501 20.4162 14.8598 20.6116 15.0552C20.8069 15.2505 20.9167 15.5155 20.9167 15.7917C20.9167 16.068 20.8069 16.333 20.6116 16.5283C20.4162 16.7237 20.1513 16.8334 19.875 16.8334H1.12499C0.848728 16.8334 0.583776 16.7237 0.388425 16.5283C0.193075 16.333 0.0833282 16.068 0.0833282 15.7917C0.0833282 15.5155 0.193075 15.2505 0.388425 15.0552C0.583776 14.8598 0.848728 14.7501 1.12499 14.7501ZM2.16666 0.166748H18.8333C19.3859 0.166748 19.9158 0.386241 20.3065 0.776942C20.6972 1.16764 20.9167 1.69755 20.9167 2.25008V12.6667C20.9167 12.943 20.8069 13.208 20.6116 13.4033C20.4162 13.5987 20.1513 13.7084 19.875 13.7084H1.12499C0.848728 13.7084 0.583776 13.5987 0.388425 13.4033C0.193075 13.208 0.0833282 12.943 0.0833282 12.6667V2.25008C0.0833282 1.69755 0.302822 1.16764 0.693522 0.776942C1.08422 0.386241 1.61413 0.166748 2.16666 0.166748ZM18.8333 11.6251V2.25008H2.16666V11.6251H18.8333Z" fill="white"/>
</svg>
