<?xml version="1.0" encoding="utf-8"?><svg xmlns="http://www.w3.org/2000/svg" xmlns:xlink="http://www.w3.org/1999/xlink"><symbol viewBox="0 0 365.696 365.696" id="icon-close" xmlns="http://www.w3.org/2000/svg"><path d="M243.188 182.86L356.32 69.726c12.5-12.5 12.5-32.766 0-45.247L341.238 9.398c-12.504-12.503-32.77-12.503-45.25 0L182.86 122.528 69.727 9.374c-12.5-12.5-32.766-12.5-45.247 0L9.375 24.457c-12.5 12.504-12.5 32.77 0 45.25l113.152 113.152L9.398 295.99c-12.503 12.503-12.503 32.769 0 45.25l15.082 15.08c12.5 12.5 32.766 12.5 45.247 0l113.132-113.132L295.99 356.32c12.503 12.5 32.769 12.5 45.25 0l15.081-15.082c12.5-12.504 12.5-32.77 0-45.25zm0 0"/></symbol><symbol viewBox="0 0 21 17" id="icon-computer" xmlns="http://www.w3.org/2000/svg"><path d="M1.125 14.75h18.75a1.042 1.042 0 110 2.083H1.125a1.041 1.041 0 110-2.083zM2.167.167h16.666a2.083 2.083 0 012.084 2.083v10.417a1.042 1.042 0 01-1.042 1.041H1.125a1.041 1.041 0 01-1.042-1.041V2.25A2.083 2.083 0 012.167.167zm16.666 11.458V2.25H2.167v9.375h16.666z"/></symbol><symbol viewBox="0 0 91 92" id="icon-cross" xmlns="http://www.w3.org/2000/svg"><path d="M30.142 30.649l31.29 31.289" filter="url(#ca)"/><path d="M29.589 61.289L60.878 30" filter="url(#cb)"/><defs><filter id="ca" x="1" y="1.507" width="89.574" height="89.574" filterUnits="userSpaceOnUse" color-interpolation-filters="sRGB"><feFlood flood-opacity="0" result="BackgroundImageFix"/><feColorMatrix in="SourceAlpha" values="0 0 0 0 0 0 0 0 0 0 0 0 0 0 0 0 0 0 127 0"/><feMorphology radius="5" operator="dilate" in="SourceAlpha" result="effect1_dropShadow"/><feOffset/><feGaussianBlur stdDeviation="5"/><feColorMatrix values="0 0 0 0 0.45098 0 0 0 0 0.32549 0 0 0 0 0.941176 0 0 0 0.3 0"/><feBlend in2="BackgroundImageFix" result="effect1_dropShadow"/><feBlend in="SourceGraphic" in2="effect1_dropShadow" result="shape"/></filter><filter id="cb" x=".447" y=".858" width="89.574" height="89.574" filterUnits="userSpaceOnUse" color-interpolation-filters="sRGB"><feFlood flood-opacity="0" result="BackgroundImageFix"/><feColorMatrix in="SourceAlpha" values="0 0 0 0 0 0 0 0 0 0 0 0 0 0 0 0 0 0 127 0"/><feMorphology radius="5" operator="dilate" in="SourceAlpha" result="effect1_dropShadow"/><feOffset/><feGaussianBlur stdDeviation="5"/><feColorMatrix values="0 0 0 0 0.45098 0 0 0 0 0.32549 0 0 0 0 0.941176 0 0 0 0.3 0"/><feBlend in2="BackgroundImageFix" result="effect1_dropShadow"/><feBlend in="SourceGraphic" in2="effect1_dropShadow" result="shape"/></filter></defs></symbol><symbol viewBox="0 0 96 96" id="icon-ellipse" xmlns="http://www.w3.org/2000/svg"><circle cx="48" cy="48" r="23" filter="url(#da)"/><defs><filter id="da" x="0" y="0" width="96" height="96" filterUnits="userSpaceOnUse" color-interpolation-filters="sRGB"><feFlood flood-opacity="0" result="BackgroundImageFix"/><feColorMatrix in="SourceAlpha" values="0 0 0 0 0 0 0 0 0 0 0 0 0 0 0 0 0 0 127 0"/><feMorphology radius="5" operator="dilate" in="SourceAlpha" result="effect1_dropShadow"/><feOffset/><feGaussianBlur stdDeviation="5"/><feColorMatrix values="0 0 0 0 0.45098 0 0 0 0 0.32549 0 0 0 0 0.941176 0 0 0 0.3 0"/><feBlend in2="BackgroundImageFix" result="effect1_dropShadow"/><feBlend in="SourceGraphic" in2="effect1_dropShadow" result="shape"/></filter></defs></symbol><symbol viewBox="0 0 21 21" id="icon-emoji" xmlns="http://www.w3.org/2000/svg"><path d="M10.49.083C4.74.083.083 4.75.083 10.5S4.74 20.917 10.49 20.917c5.76 0 10.427-4.667 10.427-10.417S16.25.083 10.49.083zm-3.636 6.25a1.56 1.56 0 011.563 1.563 1.56 1.56 0 01-1.563 1.562 1.56 1.56 0 01-1.562-1.562 1.56 1.56 0 011.562-1.563zM10.5 16.75c-2.375 0-4.396-1.73-5.208-4.167h10.416c-.812 2.438-2.833 4.167-5.208 4.167zm3.646-7.292a1.56 1.56 0 01-1.563-1.562 1.56 1.56 0 011.563-1.563 1.56 1.56 0 011.562 1.563 1.56 1.56 0 01-1.562 1.562z"/></symbol><symbol viewBox="0 0 25 17" id="icon-gamepad" xmlns="http://www.w3.org/2000/svg"><path d="M7.292 5.21V4.167a1.042 1.042 0 00-2.084 0v1.041H4.167a1.042 1.042 0 100 2.084h1.041v1.041a1.042 1.042 0 002.084 0v-1.04h1.041a1.042 1.042 0 000-2.084H7.292zm2.414-4.167h5.588A6.25 6.25 0 0125 6.25c0 3.452-2.798 10.417-6.25 10.417-2.058 0-3.884-2.477-5.023-5.209h-2.454c-1.138 2.732-2.965 5.209-5.023 5.209C2.798 16.668 0 9.703 0 6.25a6.25 6.25 0 019.706-5.208zm9.044 4.166a1.042 1.042 0 100-2.083 1.042 1.042 0 000 2.083zm-2.083 2.084a1.042 1.042 0 100-2.083 1.042 1.042 0 000 2.083zm4.166 0a1.042 1.042 0 100-2.084 1.042 1.042 0 000 2.084zM18.75 9.376a1.042 1.042 0 100-2.084 1.042 1.042 0 000 2.084z"/></symbol><symbol viewBox="0 0 21 21" id="icon-gift" xmlns="http://www.w3.org/2000/svg"><path fill-rule="evenodd" clip-rule="evenodd" d="M11.61 10V5H12V3.5a1.5 1.5 0 012-1.414 1.926 1.926 0 00-1.33-.006c-.314.115-.582.31-.77.559-.189.25-.29.543-.29.843V5H9.39V3.482c0-.403-.181-.789-.503-1.073a1.837 1.837 0 00-1.214-.445A1.91 1.91 0 007 2.086 1.5 1.5 0 019 3.5V5h.39v5H1.11c-.145 0-.29-.025-.424-.075a1.13 1.13 0 01-.36-.213A.928.928 0 010 9.018V5.982c0-.26.117-.51.325-.694C.534 5.103.816 5 1.111 5H4.13a3.117 3.117 0 01-.26-2.392c.236-.8.786-1.498 1.552-1.971A4.332 4.332 0 018.05.024c.93.078 1.798.446 2.45 1.038.65-.596 1.52-.966 2.452-1.046a4.33 4.33 0 012.633.612c.767.474 1.318 1.175 1.553 1.976.236.802.14 1.651-.268 2.396h3.02c.294 0 .576.103.785.288a.928.928 0 01.325.694v3.036c0 .26-.117.51-.325.694a1.187 1.187 0 01-.786.288h-8.278zM6.259 4.34a1.5 1.5 0 01.419-2.094 1.65 1.65 0 00-.218.163c-.321.284-.502.67-.502 1.073 0 .309.106.608.3.859zm8.066-2.094a1.499 1.499 0 01.418 2.095 1.47 1.47 0 00.17-.278c.13-.277.164-.583.098-.877a1.473 1.473 0 00-.47-.777 1.69 1.69 0 00-.216-.163zM18 21c.265 0 .52-.109.707-.302.188-.193.293-.456.293-.73V12h-7v9h6zm-15.707-.302a1.048 1.048 0 01-.293-.73V12h7v9H3a.985.985 0 01-.707-.302z"/></symbol><symbol viewBox="0 0 25 19" id="icon-people" xmlns="http://www.w3.org/2000/svg"><path fill-rule="evenodd" clip-rule="evenodd" d="M10.938 18.75s-1.563 0-1.563-1.563c0-1.562 1.563-6.25 7.813-6.25S25 15.625 25 17.188c0 1.563-1.563 1.563-1.563 1.563h-12.5zm6.25-9.375a4.688 4.688 0 100-9.375 4.688 4.688 0 000 9.375zM8.15 18.75a3.497 3.497 0 01-.338-1.563c0-2.117 1.063-4.296 3.026-5.812-.98-.302-2-.45-3.025-.438-6.25 0-7.813 4.688-7.813 6.25 0 1.563 1.563 1.563 1.563 1.563H8.15zM7.031 9.375a3.906 3.906 0 100-7.813 3.906 3.906 0 000 7.813z"/></symbol><symbol viewBox="0 0 22 21" id="icon-sword" xmlns="http://www.w3.org/2000/svg"><path d="M5.638 11.523l3.828 3.83-1.53 1.533 1.532 1.533-1.532 1.531-2.68-2.68-3.066 3.064-1.53-1.532 3.064-3.066-2.681-2.68 1.532-1.532 1.532 1.531 1.53-1.532h.002zM1.25.25l3.842.003 12.801 12.803 1.533-1.532 1.532 1.532-2.68 2.681 3.064 3.065-1.532 1.532-3.065-3.065-2.681 2.681-1.532-1.531 1.532-1.533-12.81-12.81L1.25.25zm15.662 0l3.838.003.002 3.817-4.39 4.39-3.831-3.83L16.91.25z"/></symbol><symbol viewBox="0 0 21 21" id="icon-time" xmlns="http://www.w3.org/2000/svg"><path d="M10.5 0C4.701 0 0 4.701 0 10.5S4.701 21 10.5 21 21 16.299 21 10.5 16.299 0 10.5 0zm4.846 12.115H10.5a.808.808 0 01-.808-.807v-7.27a.808.808 0 111.616 0V10.5h4.038a.808.808 0 010 1.615z"/></symbol><symbol viewBox="0 0 21 21" id="icon-today" xmlns="http://www.w3.org/2000/svg"><path d="M18 1.5h-.75V.77c0-.404-.31-.75-.714-.77a.75.75 0 00-.786.749v.75H5.25V.77c0-.404-.31-.75-.714-.77a.75.75 0 00-.786.75v.75H3a3 3 0 00-3 3V18a3 3 0 003 3h15a3 3 0 003-3V4.5a3 3 0 00-3-3zM9 12.91a1.34 1.34 0 01-1.34 1.34H4.34A1.34 1.34 0 013 12.91V9.59a1.34 1.34 0 011.34-1.34h3.32A1.34 1.34 0 019 9.59v3.32zm10.5-8.035v.937a.188.188 0 01-.188.188H1.688a.187.187 0 01-.187-.188V4.5A1.504 1.504 0 013 3h15a1.504 1.504 0 011.5 1.5v.375z"/></symbol><symbol viewBox="0 0 25 24" id="icon-user" xmlns="http://www.w3.org/2000/svg"><path fill-rule="evenodd" clip-rule="evenodd" d="M16.01 17.89c-1.008 1.604-2.17-2.39-3.437-2.39-1.303 0-2.518 3.922-3.573 2.28-.906-1.416-1.69-2.94-2.31-3.725-6.417 0-6.548 9.322-6.548 9.322h24.99s.44-9.363-6.774-9.363c-.638.819-1.428 2.424-2.347 3.878v-.001z"/><path fill-rule="evenodd" clip-rule="evenodd" d="M12.483 14.047c-2.338 0-4.645-6.514-4.645-9.192C7.838 2.172 10.145 0 12.484 0c2.338 0 4.644 2.172 4.644 4.855 0 2.678-2.306 9.189-4.644 9.189l-.001.003z"/></symbol><symbol viewBox="0 0 23 20" id="icon-wallet" xmlns="http://www.w3.org/2000/svg"><path d="M3.663 3.078h15.625c.183 0 .365.012.546.035A3.224 3.224 0 0016.049.4L3.2 2.594h-.014A3.223 3.223 0 001.179 3.87a4.276 4.276 0 012.484-.792zM19.288 4.25H3.663A3.128 3.128 0 00.538 7.375v9.375a3.128 3.128 0 003.125 3.125h15.625a3.128 3.128 0 003.125-3.125V7.375a3.128 3.128 0 00-3.125-3.125zm-2.32 9.375a1.562 1.562 0 110-3.124 1.562 1.562 0 010 3.124z"/><path d="M.563 10.67V5.814c0-1.059.585-2.833 2.62-3.217 1.725-.324 3.434-.324 3.434-.324s1.123.782.196.782c-.928 0-.904 1.196 0 1.196.903 0 0 1.147 0 1.147L3.175 9.523.563 10.671z"/></symbol></svg>